<svg width="541" height="102" viewBox="0 0 541 102" fill="none" xmlns="http://www.w3.org/2000/svg">
<path d="M22.448 100.824C18.4453 100.824 15.1267 100.165 12.492 98.848C9.908 97.48 7.98267 95.4027 6.716 92.616C5.44933 89.8293 4.816 86.3333 4.816 82.128C4.816 76.4533 6.944 73.616 11.2 73.616C15.456 73.616 17.584 76.0987 17.584 81.064C17.584 83.8507 17.888 85.7253 18.496 86.688C19.1547 87.6 20.4213 88.056 22.296 88.056C24.0693 88.056 25.5133 87.0933 26.628 85.168L32.252 74.984L2.46 10.156C1.44667 7.82533 1.42133 5.79866 2.384 4.07599C3.39733 2.30266 5.22133 1.416 7.856 1.416C10.6933 1.416 12.8973 3.012 14.468 6.20399L40.536 62.368L67.516 6.052C68.884 2.96133 71.088 1.416 74.128 1.416C76.408 1.416 78.0547 2.20133 79.068 3.772C80.132 5.292 80.3347 7.344 79.676 9.928L38.94 92.388C37.6733 94.9213 35.52 96.9733 32.48 98.544C29.4907 100.064 26.1467 100.824 22.448 100.824ZM121.907 100.976C119.728 100.976 118.006 100.343 116.739 99.076C115.523 97.86 114.915 96.1627 114.915 93.984V14.184H93.0271C90.7471 14.184 88.9231 13.6267 87.5551 12.512C86.2377 11.3467 85.5791 9.776 85.5791 7.8C85.5791 5.82399 86.2377 4.27866 87.5551 3.164C88.9231 1.99866 90.7471 1.416 93.0271 1.416H150.939C155.904 1.416 158.387 3.544 158.387 7.8C158.387 12.056 155.904 14.184 150.939 14.184H129.355V93.984C129.355 96.0613 128.671 97.7333 127.303 99C125.935 100.317 124.136 100.976 121.907 100.976ZM209.54 101.28C201.534 101.28 194.593 99.76 188.716 96.72C182.838 93.68 178.304 89.3733 175.112 83.8C171.92 78.2267 170.324 71.64 170.324 64.04V37.288C170.324 29.688 171.92 23.1013 175.112 17.528C178.304 11.9547 182.838 7.648 188.716 4.60799C194.593 1.568 201.534 0.0479965 209.54 0.0479965C217.494 0.0479965 224.41 1.59333 230.288 4.684C236.165 7.72399 240.7 12.0307 243.892 17.604C247.134 23.1773 248.756 29.7387 248.756 37.288V64.04C248.756 71.5893 247.134 78.1507 243.892 83.724C240.7 89.2973 236.165 93.6293 230.288 96.72C224.41 99.76 217.494 101.28 209.54 101.28ZM209.54 88.512C218.153 88.512 224.714 86.384 229.224 82.128C233.733 77.8213 235.988 71.64 235.988 63.584V37.744C235.988 29.384 233.708 23.152 229.148 19.048C224.588 14.8933 218.052 12.816 209.54 12.816C200.977 12.816 194.416 14.944 189.856 19.2C185.346 23.456 183.092 29.6373 183.092 37.744V63.584C183.092 71.64 185.346 77.8213 189.856 82.128C194.416 86.384 200.977 88.512 209.54 88.512ZM337.499 100.976C333.142 100.976 330.963 98.4933 330.963 93.528V68.904C324.782 73.3627 316.827 75.592 307.099 75.592H301.779C292.912 75.592 285.794 74.6547 280.423 72.78C275.103 70.9053 271.252 67.8653 268.871 63.66C266.49 59.404 265.299 53.7547 265.299 46.712V8.10399C265.299 2.93599 267.427 0.351993 271.683 0.351993C275.939 0.351993 278.067 2.88533 278.067 7.95199V46.408C278.067 51.0187 278.65 54.5147 279.815 56.896C280.98 59.2267 283.26 60.7973 286.655 61.608C290.1 62.4187 295.142 62.824 301.779 62.824H307.099C315.104 62.824 321.083 60.8227 325.035 56.82C328.987 52.7667 330.963 46.6613 330.963 38.504V7.95199C330.963 2.88533 333.091 0.351993 337.347 0.351993C341.603 0.351993 343.731 2.78399 343.731 7.648V93.528C343.731 98.4933 341.654 100.976 337.499 100.976ZM373.452 99.912C369.398 99.912 367.372 97.3787 367.372 92.312V9.016C367.372 3.94933 369.398 1.416 373.452 1.416H438.204C443.27 1.416 445.804 3.64533 445.804 8.10399C445.804 12.1573 443.27 14.184 438.204 14.184H380.14V38.2H419.508C425.182 38.2 428.02 40.4293 428.02 44.888C428.02 48.9413 425.182 50.968 419.508 50.968H380.14V87.144H438.204C443.27 87.144 445.804 89.3733 445.804 93.832C445.804 97.8853 443.27 99.912 438.204 99.912H373.452ZM470.236 100.976C468.362 100.976 466.842 100.343 465.676 99.076C464.562 97.8093 464.004 96.112 464.004 93.984V12.36C464.004 10.2827 464.587 8.53466 465.752 7.11599C466.918 5.64666 468.564 4.912 470.692 4.912C474.746 4.912 476.772 7.39466 476.772 12.36V47.624H488.932C490.3 47.624 491.846 46.94 493.568 45.572C495.291 44.1533 497.318 41.8733 499.648 38.732C501.979 35.54 504.74 31.2587 507.932 25.888C508.996 24.1147 510.288 22.0373 511.808 19.656C513.328 17.224 515.076 14.8933 517.052 12.664C519.079 10.384 521.359 8.50933 523.892 7.04C526.476 5.52 529.314 4.76 532.404 4.76C537.674 4.76 540.308 7.04 540.308 11.6C540.308 14.032 539.548 15.552 538.028 16.16C536.559 16.768 534.684 17.224 532.404 17.528C530.226 17.832 528.25 19.0733 526.476 21.252C524.754 23.38 522.524 26.648 519.788 31.056C517.458 34.856 515.583 37.896 514.164 40.176C512.796 42.456 511.58 44.356 510.516 45.876C509.452 47.396 508.186 48.8907 506.716 50.36C505.298 51.7787 503.322 53.552 500.788 55.68L500.484 51.728C503.626 54.2613 506.387 56.9213 508.768 59.708C511.2 62.444 513.354 65.18 515.228 67.916C517.103 70.652 518.826 73.2613 520.396 75.744C523.082 79.848 525.26 82.8627 526.932 84.788C528.655 86.6627 530.53 87.8027 532.556 88.208C533.316 88.36 534.304 88.5627 535.52 88.816C536.787 89.0187 537.902 89.5507 538.864 90.412C539.827 91.2733 540.308 92.7173 540.308 94.744C540.308 98.8987 537.826 100.976 532.86 100.976C529.162 100.976 525.336 99.76 521.384 97.328C517.483 94.8453 513.708 91.1467 510.06 86.232C509.25 85.0667 508.008 83.2933 506.336 80.912C504.715 78.48 503.22 76.2507 501.852 74.224C498.762 69.5627 496.102 66.092 493.872 63.812C491.694 61.532 489.54 60.392 487.412 60.392H476.772V93.984C476.772 96.0107 476.164 97.6827 474.948 99C473.783 100.317 472.212 100.976 470.236 100.976Z" fill="#1E1E1E"/>
</svg>
