<svg width="540" height="102" viewBox="0 0 540 102" fill="none" xmlns="http://www.w3.org/2000/svg">
<path d="M21.6355 100.824C17.6328 100.824 14.3142 100.165 11.6795 98.848C9.0955 97.48 7.17017 95.4027 5.9035 92.616C4.63683 89.8293 4.0035 86.3333 4.0035 82.128C4.0035 76.4533 6.1315 73.616 10.3875 73.616C14.6435 73.616 16.7715 76.0987 16.7715 81.064C16.7715 83.8507 17.0755 85.7253 17.6835 86.688C18.3422 87.6 19.6088 88.056 21.4835 88.056C23.2568 88.056 24.7008 87.0933 25.8155 85.168L31.4395 74.984L1.6475 10.156C0.634167 7.82533 0.608834 5.79866 1.5715 4.07599C2.58483 2.30266 4.40883 1.416 7.0435 1.416C9.88083 1.416 12.0848 3.012 13.6555 6.20399L39.7235 62.368L66.7035 6.052C68.0715 2.96133 70.2755 1.416 73.3155 1.416C75.5955 1.416 77.2422 2.20133 78.2555 3.772C79.3195 5.292 79.5222 7.344 78.8635 9.928L38.1275 92.388C36.8608 94.9213 34.7075 96.9733 31.6675 98.544C28.6782 100.064 25.3342 100.824 21.6355 100.824ZM121.095 100.976C118.916 100.976 117.193 100.343 115.927 99.076C114.711 97.86 114.103 96.1627 114.103 93.984V14.184H92.2146C89.9346 14.184 88.1106 13.6267 86.7426 12.512C85.4252 11.3467 84.7666 9.776 84.7666 7.8C84.7666 5.82399 85.4252 4.27866 86.7426 3.164C88.1106 1.99866 89.9346 1.416 92.2146 1.416H150.127C155.092 1.416 157.575 3.544 157.575 7.8C157.575 12.056 155.092 14.184 150.127 14.184H128.543V93.984C128.543 96.0613 127.859 97.7333 126.491 99C125.123 100.317 123.324 100.976 121.095 100.976ZM208.727 101.28C200.722 101.28 193.781 99.76 187.903 96.72C182.026 93.68 177.491 89.3733 174.299 83.8C171.107 78.2267 169.511 71.64 169.511 64.04V37.288C169.511 29.688 171.107 23.1013 174.299 17.528C177.491 11.9547 182.026 7.648 187.903 4.60799C193.781 1.568 200.722 0.0479965 208.727 0.0479965C216.682 0.0479965 223.598 1.59333 229.475 4.684C235.353 7.72399 239.887 12.0307 243.079 17.604C246.322 23.1773 247.943 29.7387 247.943 37.288V64.04C247.943 71.5893 246.322 78.1507 243.079 83.724C239.887 89.2973 235.353 93.6293 229.475 96.72C223.598 99.76 216.682 101.28 208.727 101.28ZM208.727 88.512C217.341 88.512 223.902 86.384 228.411 82.128C232.921 77.8213 235.175 71.64 235.175 63.584V37.744C235.175 29.384 232.895 23.152 228.335 19.048C223.775 14.8933 217.239 12.816 208.727 12.816C200.165 12.816 193.603 14.944 189.043 19.2C184.534 23.456 182.279 29.6373 182.279 37.744V63.584C182.279 71.64 184.534 77.8213 189.043 82.128C193.603 86.384 200.165 88.512 208.727 88.512ZM336.686 100.976C332.329 100.976 330.15 98.4933 330.15 93.528V68.904C323.969 73.3627 316.014 75.592 306.286 75.592H300.966C292.1 75.592 284.981 74.6547 279.61 72.78C274.29 70.9053 270.44 67.8653 268.058 63.66C265.677 59.404 264.486 53.7547 264.486 46.712V8.10399C264.486 2.93599 266.614 0.351993 270.87 0.351993C275.126 0.351993 277.254 2.88533 277.254 7.95199V46.408C277.254 51.0187 277.837 54.5147 279.002 56.896C280.168 59.2267 282.448 60.7973 285.842 61.608C289.288 62.4187 294.329 62.824 300.966 62.824H306.286C314.292 62.824 320.27 60.8227 324.222 56.82C328.174 52.7667 330.15 46.6613 330.15 38.504V7.95199C330.15 2.88533 332.278 0.351993 336.534 0.351993C340.79 0.351993 342.918 2.78399 342.918 7.648V93.528C342.918 98.4933 340.841 100.976 336.686 100.976ZM372.639 99.912C368.586 99.912 366.559 97.3787 366.559 92.312V9.016C366.559 3.94933 368.586 1.416 372.639 1.416H437.391C442.458 1.416 444.991 3.64533 444.991 8.10399C444.991 12.1573 442.458 14.184 437.391 14.184H379.327V38.2H418.695C424.37 38.2 427.207 40.4293 427.207 44.888C427.207 48.9413 424.37 50.968 418.695 50.968H379.327V87.144H437.391C442.458 87.144 444.991 89.3733 444.991 93.832C444.991 97.8853 442.458 99.912 437.391 99.912H372.639ZM469.424 100.976C467.549 100.976 466.029 100.343 464.864 99.076C463.749 97.8093 463.192 96.112 463.192 93.984V12.36C463.192 10.2827 463.775 8.53466 464.94 7.11599C466.105 5.64666 467.752 4.912 469.88 4.912C473.933 4.912 475.96 7.39466 475.96 12.36V47.624H488.12C489.488 47.624 491.033 46.94 492.756 45.572C494.479 44.1533 496.505 41.8733 498.836 38.732C501.167 35.54 503.928 31.2587 507.12 25.888C508.184 24.1147 509.476 22.0373 510.996 19.656C512.516 17.224 514.264 14.8933 516.24 12.664C518.267 10.384 520.547 8.50933 523.08 7.04C525.664 5.52 528.501 4.76 531.592 4.76C536.861 4.76 539.496 7.04 539.496 11.6C539.496 14.032 538.736 15.552 537.216 16.16C535.747 16.768 533.872 17.224 531.592 17.528C529.413 17.832 527.437 19.0733 525.664 21.252C523.941 23.38 521.712 26.648 518.976 31.056C516.645 34.856 514.771 37.896 513.352 40.176C511.984 42.456 510.768 44.356 509.704 45.876C508.64 47.396 507.373 48.8907 505.904 50.36C504.485 51.7787 502.509 53.552 499.976 55.68L499.672 51.728C502.813 54.2613 505.575 56.9213 507.956 59.708C510.388 62.444 512.541 65.18 514.416 67.916C516.291 70.652 518.013 73.2613 519.584 75.744C522.269 79.848 524.448 82.8627 526.12 84.788C527.843 86.6627 529.717 87.8027 531.744 88.208C532.504 88.36 533.492 88.5627 534.708 88.816C535.975 89.0187 537.089 89.5507 538.052 90.412C539.015 91.2733 539.496 92.7173 539.496 94.744C539.496 98.8987 537.013 100.976 532.048 100.976C528.349 100.976 524.524 99.76 520.572 97.328C516.671 94.8453 512.896 91.1467 509.248 86.232C508.437 85.0667 507.196 83.2933 505.524 80.912C503.903 78.48 502.408 76.2507 501.04 74.224C497.949 69.5627 495.289 66.092 493.06 63.812C490.881 61.532 488.728 60.392 486.6 60.392H475.96V93.984C475.96 96.0107 475.352 97.6827 474.136 99C472.971 100.317 471.4 100.976 469.424 100.976Z" fill="#1E1E1E"/>
</svg>
