<svg width="471" height="102" viewBox="0 0 471 102" fill="none" xmlns="http://www.w3.org/2000/svg">
<path d="M7.24 100.976C2.984 100.976 0.856 98.544 0.856 93.68V7.8C0.856 2.83466 2.88267 0.351993 6.936 0.351993C9.41867 0.351993 11.5973 1.64399 13.472 4.22799L41.592 43.596L69.864 4.22799C71.688 1.64399 73.816 0.351993 76.248 0.351993C80.4027 0.351993 82.48 2.83466 82.48 7.8V93.68C82.48 98.544 80.352 100.976 76.096 100.976C71.84 100.976 69.712 98.392 69.712 93.224V22.392L47.14 54.464C46.2787 55.7307 45.4427 56.5667 44.632 56.972C43.8213 57.3267 42.8587 57.504 41.744 57.504C40.5787 57.504 39.5653 57.3267 38.704 56.972C37.8933 56.5667 37.0573 55.7307 36.196 54.464L13.624 22.392V93.224C13.624 98.392 11.496 100.976 7.24 100.976ZM112.631 100.976C108.375 100.976 106.247 98.544 106.247 93.68V7.8C106.247 2.83466 108.273 0.351993 112.327 0.351993C116.785 0.351993 119.015 2.83466 119.015 7.8V40.48H171.911V7.8C171.911 2.83466 174.039 0.351993 178.295 0.351993C182.551 0.351993 184.679 2.83466 184.679 7.8V93.68C184.679 98.544 182.551 100.976 178.295 100.976C174.039 100.976 171.911 98.544 171.911 93.68V53.248H119.015V93.68C119.015 98.544 116.887 100.976 112.631 100.976ZM244.548 101.28C236.542 101.28 229.601 99.76 223.724 96.72C217.846 93.68 213.312 89.3733 210.12 83.8C206.928 78.2267 205.332 71.64 205.332 64.04V37.288C205.332 29.688 206.928 23.1013 210.12 17.528C213.312 11.9547 217.846 7.648 223.724 4.60799C229.601 1.568 236.542 0.0479965 244.548 0.0479965C252.502 0.0479965 259.418 1.59333 265.296 4.684C271.173 7.72399 275.708 12.0307 278.9 17.604C282.142 23.1773 283.764 29.7387 283.764 37.288V64.04C283.764 71.5893 282.142 78.1507 278.9 83.724C275.708 89.2973 271.173 93.6293 265.296 96.72C259.418 99.76 252.502 101.28 244.548 101.28ZM244.548 88.512C253.161 88.512 259.722 86.384 264.232 82.128C268.741 77.8213 270.996 71.64 270.996 63.584V37.744C270.996 29.384 268.716 23.152 264.156 19.048C259.596 14.8933 253.06 12.816 244.548 12.816C235.985 12.816 229.424 14.944 224.864 19.2C220.354 23.456 218.1 29.6373 218.1 37.744V63.584C218.1 71.64 220.354 77.8213 224.864 82.128C229.424 86.384 235.985 88.512 244.548 88.512ZM310.491 100.976C306.235 100.976 304.107 98.544 304.107 93.68V22.544C304.107 14.8427 305.424 9.39599 308.059 6.20399C310.744 3.012 315.304 1.416 321.739 1.416H372.659C377.827 1.416 380.411 3.544 380.411 7.8C380.411 12.056 377.827 14.184 372.659 14.184H322.803C320.421 14.184 318.825 14.5893 318.015 15.4C317.255 16.2107 316.875 17.8827 316.875 20.416V93.68C316.875 98.544 314.747 100.976 310.491 100.976ZM430.985 101.28C422.98 101.28 416.038 99.76 410.161 96.72C404.284 93.68 399.749 89.3733 396.557 83.8C393.365 78.2267 391.769 71.64 391.769 64.04V37.288C391.769 29.688 393.365 23.1013 396.557 17.528C399.749 11.9547 404.284 7.648 410.161 4.60799C416.038 1.568 422.98 0.0479965 430.985 0.0479965C438.94 0.0479965 445.856 1.59333 451.733 4.684C457.61 7.72399 462.145 12.0307 465.337 17.604C468.58 23.1773 470.201 29.7387 470.201 37.288V64.04C470.201 71.5893 468.58 78.1507 465.337 83.724C462.145 89.2973 457.61 93.6293 451.733 96.72C445.856 99.76 438.94 101.28 430.985 101.28ZM430.985 88.512C439.598 88.512 446.16 86.384 450.669 82.128C455.178 77.8213 457.433 71.64 457.433 63.584V37.744C457.433 29.384 455.153 23.152 450.593 19.048C446.033 14.8933 439.497 12.816 430.985 12.816C422.422 12.816 415.861 14.944 411.301 19.2C406.792 23.456 404.537 29.6373 404.537 37.744V63.584C404.537 71.64 406.792 77.8213 411.301 82.128C415.861 86.384 422.422 88.512 430.985 88.512Z" fill="#1E1E1E"/>
</svg>
